<svg xmlns="http://www.w3.org/2000/svg" xmlns:xlink="http://www.w3.org/1999/xlink" width="64" height="64" viewBox="0 0 64 64" id="chat"><defs><path id="a" d="M.06 64V.04H64V64z"></path></defs><g fill="none" fill-rule="evenodd"><mask id="b" fill="#fff"><use xlink:href="#a"></use></mask><path fill="#76ABC4" d="M64 32c0 17.673-14.327 32-32 32C14.327 64 0 49.673 0 32 0 14.327 14.327 0 32 0c17.673 0 32 14.327 32 32" mask="url(#b)"></path><path fill="#638DA0" d="M32 56s-.537-2.403-1.225-6.056C20.303 49.372 12 41.569 12 32c0-9.941 8.954-18 20-18s20 8.059 20 18c0 6.795-4.186 12.706-10.361 15.77C37.045 52.956 32 56 32 56"></path><path fill="#FFFFFE" d="M49 28.8C49 43.763 32 54 32 54s-9.389-42 0-42 17 7.522 17 16.8"></path><path fill="#FFFFFE" d="M52 30c0 9.941-8.954 18-20 18s-20-8.059-20-18 8.954-18 20-18 20 8.059 20 18"></path><path fill="#4C5665" d="M34 30a2 2 0 10-3.999-.001A2 2 0 0034 30M42 30a2 2 0 10-3.999-.001A2 2 0 0042 30M26 30a2 2 0 10-3.999-.001A2 2 0 0026 30"></path></g></svg>